<svg width="30" height="20" viewBox="0 0 30 20" fill="none" xmlns="http://www.w3.org/2000/svg">
<path d="M29.0857 17.4327C29.5252 18.4581 28.7928 19.63 27.7185 19.63H18.0994L17.6111 14.8937C17.5623 14.5031 17.2205 14.1613 16.8299 14.1613H13.4607C13.0701 14.1613 12.7283 14.5031 12.6795 14.8937L12.1912 19.63H2.57205C1.49783 19.63 0.765407 18.4581 1.20486 17.4327L8.0408 1.80774C8.28494 1.27063 8.82205 0.880005 9.40798 0.880005H14.1443L14.0467 2.05188C13.9978 2.24719 14.1931 2.4425 14.4373 2.4425H15.8533C16.0974 2.4425 16.2928 2.24719 16.2439 2.05188L16.1463 0.880005H20.8826C21.4685 0.880005 22.0056 1.27063 22.2498 1.80774L29.0857 17.4327ZM13.8025 4.39563L13.5584 6.49524C13.5584 6.83704 13.8025 7.13 14.1443 7.13H16.1463C16.4881 7.13 16.7322 6.83704 16.7322 6.49524L16.4881 4.39563C16.4881 4.20032 16.2928 4.005 16.0974 4.005H14.1931V4.05383C13.9978 4.05383 13.8025 4.20032 13.8025 4.39563ZM16.4881 12.5988C16.9763 12.5988 17.3181 12.2081 17.2693 11.7687L17.0252 9.42493C16.9763 9.0343 16.6345 8.6925 16.2439 8.6925H14.0467C13.656 8.6925 13.3142 9.0343 13.2654 9.42493L13.0213 11.7687C12.9724 12.2081 13.3142 12.5988 13.8025 12.5988H16.4881Z" fill="white"/>
</svg>
