<svg width="10" height="9" viewBox="0 0 10 9" fill="none" xmlns="http://www.w3.org/2000/svg">
<path d="M8.76875 3.6925C9.10078 3.6925 9.39375 3.98547 9.39375 4.3175V4.9425C9.39375 5.29407 9.10078 5.5675 8.76875 5.5675H5.95625V8.38C5.95625 8.73157 5.66328 9.005 5.33125 9.005H4.70625C4.35469 9.005 4.08125 8.73157 4.08125 8.38V5.5675H1.26875C0.917188 5.5675 0.64375 5.29407 0.64375 4.9425V4.3175C0.64375 3.98547 0.917188 3.6925 1.26875 3.6925H4.08125V0.880005C4.08125 0.547974 4.35469 0.255005 4.70625 0.255005H5.33125C5.66328 0.255005 5.95625 0.547974 5.95625 0.880005V3.6925H8.76875Z" fill="#6E6E6E"/>
</svg>
