<svg width="30" height="26" viewBox="0 0 30 26" fill="none" xmlns="http://www.w3.org/2000/svg">
<path d="M24.5647 10C26.2737 10 29.2522 11.416 29.2522 13.125C29.2522 14.8828 26.2737 16.25 24.5647 16.25H18.9495L13.8225 25.2344C13.6761 25.4785 13.4319 25.625 13.1389 25.625H9.96511C9.428 25.625 9.03738 25.1367 9.18386 24.6484L11.5764 16.25H6.59597L4.44754 19.082C4.30105 19.2773 4.10574 19.375 3.8616 19.375H1.90847C1.37136 19.375 0.980739 18.9355 1.12722 18.4473L2.68972 13.125L1.12722 7.85156C0.980739 7.36328 1.37136 6.875 1.90847 6.875H3.8616C4.10574 6.875 4.30105 7.02148 4.44754 7.2168L6.59597 10H11.5764L9.18386 1.65039C9.03738 1.16211 9.428 0.625 9.96511 0.625H13.1389C13.4319 0.625 13.6761 0.820312 13.8225 1.06445L18.9495 10H24.5647Z" fill="white"/>
</svg>
