<svg width="25" height="25" viewBox="0 0 25 25" fill="none" xmlns="http://www.w3.org/2000/svg">
<path d="M12.175 0.14563C18.8645 0.14563 24.2844 5.56555 24.2844 12.255C24.2844 18.9445 18.8645 24.3644 12.175 24.3644C5.48555 24.3644 0.0656252 18.9445 0.0656252 12.255C0.0656252 5.56555 5.48555 0.14563 12.175 0.14563ZM16.6672 15.4288C16.7648 15.3312 16.8625 15.1359 16.8625 14.9406C16.8625 14.6964 16.716 14.5011 16.5695 14.3546L13.7375 12.255V5.22375C13.7375 4.83313 13.3469 4.4425 12.9563 4.4425H11.3938C10.9543 4.4425 10.6125 4.83313 10.6125 5.22375V12.8409C10.6125 13.4757 10.8566 14.0128 11.3449 14.3546L14.6164 16.796C14.7141 16.8937 14.9094 16.9913 15.0559 16.9913C15.3488 16.9913 15.5441 16.8448 15.6906 16.6495L16.6672 15.4288Z" fill="white"/>
</svg>
