<svg width="20" height="26" viewBox="0 0 20 26" fill="none" xmlns="http://www.w3.org/2000/svg">
<path d="M6.60469 4.27063C6.60469 2.36633 8.16719 0.755005 10.1203 0.755005C12.0246 0.755005 13.6359 2.36633 13.6359 4.27063C13.6359 6.22375 12.0246 7.78625 10.1203 7.78625C8.16719 7.78625 6.60469 6.22375 6.60469 4.27063ZM19.007 4.36829C19.6418 4.95422 19.6418 5.97961 19.007 6.56555L14.4172 11.2042V24.1925C14.4172 25.0714 13.6848 25.755 12.8547 25.755H12.0734C11.1945 25.755 10.5109 25.0714 10.5109 24.1925V18.7238H9.72969V24.1925C9.72969 25.0714 8.99727 25.755 8.16719 25.755H7.38594C6.50703 25.755 5.82344 25.0714 5.82344 24.1925V11.2042L1.18477 6.56555C0.55 5.97961 0.55 4.95422 1.18477 4.36829C1.7707 3.73352 2.79609 3.73352 3.38203 4.36829L7.63008 8.5675H12.5617L16.8098 4.36829C17.3957 3.73352 18.4211 3.73352 19.007 4.36829Z" fill="white"/>
</svg>
