<svg width="19" height="26" viewBox="0 0 19 26" fill="none" xmlns="http://www.w3.org/2000/svg">
<path d="M9.47557 17.8125C6.83885 17.8125 4.78807 15.7617 4.78807 13.125V5.3125C4.78807 2.72461 6.83885 0.625 9.47557 0.625C12.0635 0.625 14.1631 2.72461 14.1631 5.3125V13.125C14.1631 15.7617 12.0635 17.8125 9.47557 17.8125ZM17.2881 10C17.6787 10 18.0693 10.3906 18.0693 10.7812V13.125C18.0693 17.4707 14.7978 21.084 10.6474 21.6699V23.2812H13.3818C13.7724 23.2812 14.1631 23.6719 14.1631 24.0625V24.8438C14.1631 25.2832 13.7724 25.625 13.3818 25.625H5.56932C5.12987 25.625 4.78807 25.2832 4.78807 24.8438V24.0625C4.78807 23.6719 5.12987 23.2812 5.56932 23.2812H8.3037V21.6211C3.958 21.0352 0.881824 17.1289 0.881824 12.7832V10.7812C0.881824 10.3906 1.22362 10 1.66307 10H2.44432C2.83495 10 3.22557 10.3906 3.22557 10.7812V12.8809C3.22557 16.1523 5.56932 19.0332 8.84081 19.375C12.5517 19.7168 15.7256 16.7871 15.7256 13.125V10.7812C15.7256 10.3906 16.0674 10 16.5068 10H17.2881Z" fill="white"/>
</svg>
